<?xml version="1.0" encoding="UTF-8"?>
<svg id="Capa_1" xmlns="http://www.w3.org/2000/svg" version="1.1" viewBox="0 0 997.6 214.2">
  <!-- Generator: Adobe Illustrator 29.2.1, SVG Export Plug-In . SVG Version: 2.1.0 Build 116)  -->
  <defs>
    <style>
      .st0, .st1 {
        fill: #26985a;
      }

      .st1 {
        fill-rule: evenodd;
      }
    </style>
  </defs>
  <path class="st0" d="M959.2,166.4c-6-3.8-12.7-7.3-19.8-10.4,5.5-14,8.8-28.4,9.6-40.9h31.3c-1.4,19.6-8.7,37.4-21.2,51.4M922.2,191.8c4.8-7.3,8.8-15,12-23,5.3,2.3,10.4,5,14.7,7.7-7.8,6.7-16.8,11.8-26.7,15.3M901.6,196.9c-1.8.4-3.5.6-5,.7v-39.3c8.2.9,16.3,2.6,24.2,5.1-5,11.8-11.6,23.4-19.2,33.6M896.6,115h37.6c-1,11.4-3.8,23.7-8.2,35.8-9.8-3.8-20-6.2-29.4-7.2v-28.6h0ZM896.6,72.1c9.4-1,19.5-3.5,29.4-7.2,4.5,12.1,7.2,24.1,8.2,35.8h-37.6v-28.5ZM896.6,18.1c1.6,0,3.3.3,5,.7,8,10.6,14.5,21.7,19.5,33.2-7.8,2.5-16.4,4.4-24.5,5.4V18.1h0ZM948.8,39.1c-4.4,2.6-9.1,5.3-14.3,7.5-3.3-7.7-7.6-15.6-12.2-22.7,9.8,3.5,18.8,8.6,26.6,15.2M980.3,100.6h-31.3c-1-12.5-4.4-26.9-9.6-40.9,7.2-3.3,13.9-6.8,19.8-10.4,12.5,14,19.8,31.7,21.1,51.3M881.8,143.6c-9.3,1-19.7,3.5-29.3,7.2-4.5-12.3-7.3-24.4-8.3-35.8h37.7v28.6h0ZM881.8,197.6c-1.5,0-3.2-.3-5-.7-7.5-10.1-14.2-21.6-19.2-33.6,7.9-2.4,16-4.1,24.2-5.1v39.3ZM829.6,176.5c4.2-2.8,9.3-5.4,14.6-7.7,3.2,8,7.3,15.8,12,23-9.9-3.5-18.9-8.6-26.7-15.3M798,115h31.4c.8,12.4,4.2,26.9,9.6,41-7,3.1-13.7,6.6-19.8,10.4-12.4-14-19.8-31.7-21.2-51.4M819.3,49.2c6,3.7,12.6,7.2,19.8,10.5-5.2,14-8.6,28.4-9.6,40.9h-31.4c1.5-19.7,8.8-37.4,21.2-51.3M856.2,23.9c-4.6,7-8.8,14.8-12.2,22.7-5.5-2.4-10.6-5.3-14.3-7.5,7.8-6.6,16.7-11.7,26.6-15.2M881.8,72.1v28.5h-37.7c1-11.6,3.8-23.7,8.3-35.8,9.7,3.7,20.1,6.3,29.3,7.2M876.8,18.8c1.6-.4,3.4-.6,5-.7v39.3c-8.1-.9-16.7-2.8-24.5-5.3,5.1-11.6,11.7-22.8,19.6-33.2M889.2,1.5c-60.5,0-108.4,47-108.4,106.3s47.9,106.3,108.4,106.3,108.4-47,108.4-106.3S949.7,1.5,889.2,1.5"/>
  <g>
    <path class="st1" d="M42.7,107.7H0c0-.2,0-.4,0-.5,0-6.5,0-13.1.2-19.6.2-4.3,1.9-7.9,5.7-10.4,4.9-3.2,11.6-1.5,13.9,3.7,0,0,.1.1.2.3.9-2.1,2.2-3.9,3.9-5.3,4.7-3.9,12-2.8,15.8,2.3,2.1,2.8,3,6,3.1,9.4,0,6.6,0,13.1,0,19.7,0,0,0,.2,0,.4h0s0,0,0,0ZM35.1,98.5c0-3.8.1-7.4,0-11.1-.1-2.1-1.5-3.5-3.5-4.2-3.9-1.4-7.6,1.3-7.7,5.7,0,3,0,6,0,8.9,0,.2,0,.5,0,.7h11.2,0ZM16.7,98.5c0-3.3.2-6.5,0-9.7-.1-2.3-2.1-3.8-4.4-3.8-2.3,0-4.2,1.5-4.7,3.8-.1.6-.2,1.3-.2,2,0,2.6,0,5.2,0,7.8h9.3,0Z"/>
    <path class="st1" d="M0,154h24.9c2.5,0,4.9-.6,6.9-2.2,3-2.4,4.2-6.5,3.1-10.3-1.1-3.5-4.5-6.4-8.1-6.7-.8,0-1.7-.1-2.5-.1H0v-9.1c.4,0,.7,0,1,0,8.1,0,16.2,0,24.3,0,8.1,0,14.7,4.3,17.1,11.5,2.4,7.2,1.8,14.2-3.4,20.2-3.1,3.6-7.1,5.6-11.8,5.7-8.9.2-17.8.1-26.7.2-.1,0-.3,0-.5,0v-9.1h0Z"/>
    <path class="st1" d="M28.7,205.2h14v9.1H0c0-.1-.1-.2-.1-.3,0-6.5-.2-13,.1-19.5.3-7.2,6-12.9,12.8-13.4,7.8-.6,14,4,15.5,11.4.3,1.7.3,3.4.3,5.2,0,2.4,0,4.9,0,7.5h0ZM20.3,205.1c0-3.4.2-6.7,0-10-.2-2.9-2.9-4.9-5.9-4.9s-5.6,2.1-5.9,4.9c-.3,2.7-.2,5.5-.2,8.2v1.8h12.1Z"/>
    <path class="st1" d="M0,46.5h34.2v-19.6h8.5v28.8H0s0-9.1,0-9.1Z"/>
    <path class="st1" d="M0,9V0h42.7v9H0Z"/>
  </g>
  <path class="st0" d="M722.6,139.5c26.6-11.3,44-33,44-65.7v-.6c0-21.1-6.4-37.6-19-49.8C733.3,8.7,710.7.2,678,.2H215.5l-51,82.8L113.4.2h-63.4v213.9h58.8v-122.2l54.4,83.1h1.2l54.7-83.7v122.9h211.4l-30.2-50.4h-122.2v-33.9h114.5l-30.2-46.8h-84.4v-32.4h113.2s62.6,0,62.6,0v163.6h59.3V50.6h63.6v163.5h59.3v-64.8h26l43.1,64.8h68.5l-51-74.6h0ZM636.1,102.9v-51.3h38.8c19.9,0,32.1,8.6,32.1,25.4v.6c0,15.6-11.6,25.4-31.8,25.4h-39.1,0Z"/>
</svg>